<?xml version="1.0" standalone="no"?>
<!DOCTYPE svg PUBLIC "-//W3C//DTD SVG 20010904//EN"
 "http://www.w3.org/TR/2001/REC-SVG-20010904/DTD/svg10.dtd">
<svg version="1.0" xmlns="http://www.w3.org/2000/svg"
 width="225.000000pt" height="225.000000pt" viewBox="0 0 225.000000 225.000000"
 preserveAspectRatio="xMidYMid meet">

<g transform="translate(0.000000,225.000000) scale(0.100000,-0.100000)"
fill="#000000" stroke="none">
<path d="M1074 2099 c-45 -47 -196 -147 -287 -189 -115 -54 -219 -81 -409
-105 l-47 -6 -10 -52 c-32 -163 -38 -355 -16 -517 58 -424 277 -752 694 -1039
58 -39 110 -71 118 -71 23 0 191 109 292 189 271 217 444 495 512 826 20 93
23 142 24 310 0 194 -8 318 -24 343 -4 6 -59 18 -124 27 -232 30 -424 113
-609 261 -37 30 -71 54 -76 54 -4 0 -21 -14 -38 -31z m66 -80 c180 -145 430
-249 657 -274 71 -8 68 -1 82 -147 7 -77 7 -78 -16 -78 -22 0 -23 3 -23 85 0
47 -2 85 -4 85 -2 0 -37 6 -78 14 -177 34 -378 119 -558 237 l-85 55 -68 -51
c-125 -95 -322 -179 -554 -235 l-93 -22 0 -84 c0 -77 -2 -84 -20 -84 -17 0
-20 7 -20 40 0 22 5 71 12 109 l12 69 86 11 c199 25 429 123 580 245 30 25 57
45 60 45 3 0 16 -9 30 -20z m62 -112 c212 -136 364 -197 581 -232 l37 -6 0
-74 0 -75 -695 0 -696 0 3 76 3 77 95 23 c233 59 421 137 520 218 30 24 58 45
62 45 4 1 45 -23 90 -52z m688 -451 c0 -135 -46 -368 -99 -508 -114 -295 -343
-565 -613 -724 l-63 -36 -45 23 c-81 43 -234 166 -326 261 -238 250 -368 547
-390 896 l-7 112 772 0 771 0 0 -24z"/>
<path d="M1097 1823 c-32 -9 -56 -17 -53 -20 2 -2 21 0 43 6 64 18 69 16 71
-32 l3 -43 -63 -13 c-35 -7 -73 -15 -85 -18 -20 -4 -23 -1 -23 25 0 17 6 33
13 35 10 4 10 6 0 6 -19 1 -16 19 5 24 13 3 12 4 -3 3 -16 -1 -21 -10 -25 -41
l-5 -40 -137 -29 c-76 -16 -136 -31 -134 -34 4 -3 179 28 241 44 25 6 25 6 27
-62 l1 -69 6 59 6 60 45 11 c25 6 57 15 72 18 l27 7 4 -82 3 -83 2 83 c3 105
22 110 22 5 l0 -78 142 3 c226 4 248 8 56 10 l-178 2 0 85 0 84 43 11 c23 6
47 13 54 15 19 6 3 45 -21 49 -61 13 -107 12 -159 -1z"/>
<path d="M1118 1793 c7 -3 16 -2 19 1 4 3 -2 6 -13 5 -11 0 -14 -3 -6 -6z"/>
<path d="M1078 1783 c7 -3 16 -2 19 1 4 3 -2 6 -13 5 -11 0 -14 -3 -6 -6z"/>
<path d="M1028 1773 c6 -2 18 -2 25 0 6 3 1 5 -13 5 -14 0 -19 -2 -12 -5z"/>
<path d="M1320 1740 c-12 -8 -11 -10 7 -10 12 0 25 5 28 10 8 13 -15 13 -35 0z"/>
<path d="M1228 1723 c6 -2 18 -2 25 0 6 3 1 5 -13 5 -14 0 -19 -2 -12 -5z"/>
<path d="M1483 1688 c2 -7 16 -13 32 -13 16 0 30 6 33 13 2 8 -8 12 -33 12
-25 0 -35 -4 -32 -12z"/>
<path d="M1382 1678 c7 -20 48 -23 48 -4 0 11 -9 16 -26 16 -16 0 -24 -5 -22
-12z"/>
<path d="M1585 1680 c-3 -5 1 -22 9 -37 12 -24 12 -32 0 -55 -16 -30 -2 -49
15 -21 11 17 11 17 22 0 15 -26 30 -11 17 18 -8 19 -8 32 1 51 13 30 7 44 -11
26 -16 -16 -28 -15 -28 2 0 19 -17 29 -25 16z"/>
<path d="M920 1670 c0 -5 7 -10 15 -10 8 0 15 5 15 10 0 6 -7 10 -15 10 -8 0
-15 -4 -15 -10z"/>
<path d="M1292 1668 c7 -20 48 -23 48 -4 0 11 -9 16 -26 16 -16 0 -24 -5 -22
-12z"/>
<path d="M480 1610 c0 -33 4 -60 10 -60 6 0 10 11 10 25 0 18 5 25 20 25 16 0
20 7 20 35 0 32 -2 35 -30 35 l-30 0 0 -60z m40 20 c0 -11 -4 -20 -10 -20 -5
0 -10 9 -10 20 0 11 5 20 10 20 6 0 10 -9 10 -20z"/>
<path d="M560 1610 c0 -33 4 -60 10 -60 6 0 10 27 10 60 0 33 -4 60 -10 60 -6
0 -10 -27 -10 -60z"/>
<path d="M607 1664 c-4 -4 -7 -31 -7 -61 l0 -53 35 0 36 0 -3 58 c-3 53 -5 57
-28 60 -14 2 -29 0 -33 -4z m41 -58 c3 -41 1 -47 -15 -44 -19 3 -30 55 -19 85
12 29 31 6 34 -41z"/>
<path d="M1065 1665 c-5 -2 -22 -6 -37 -9 -26 -6 -28 -10 -28 -51 l0 -45 -152
0 c-83 0 -149 -2 -147 -4 2 -2 83 -6 179 -9 96 -3 167 -3 158 0 -14 3 -18 15
-18 54 0 43 3 50 18 47 12 -2 18 -15 20 -46 3 -37 6 -42 28 -42 23 0 24 3 24
55 0 55 -7 63 -45 50z"/>
<path d="M1210 1654 c0 -9 7 -14 17 -12 25 5 28 28 4 28 -12 0 -21 -6 -21 -16z"/>
<path d="M1690 1610 c0 -27 5 -50 10 -50 6 0 10 23 10 50 0 28 -4 50 -10 50
-5 0 -10 -22 -10 -50z"/>
<path d="M1730 1605 c0 -25 5 -45 10 -45 6 0 10 20 10 45 0 25 -4 45 -10 45
-5 0 -10 -20 -10 -45z"/>
<path d="M748 1633 c7 -3 16 -2 19 1 4 3 -2 6 -13 5 -11 0 -14 -3 -6 -6z"/>
<path d="M900 1620 c0 -5 7 -10 15 -10 8 0 15 5 15 10 0 6 -7 10 -15 10 -8 0
-15 -4 -15 -10z"/>
<path d="M940 1610 c0 -19 -7 -20 -115 -20 -72 0 -115 -4 -115 -10 0 -7 43
-10 123 -8 l122 3 3 28 c2 15 -1 27 -7 27 -6 0 -11 -9 -11 -20z"/>
<path d="M840 1610 c0 -5 7 -10 15 -10 8 0 15 5 15 10 0 6 -7 10 -15 10 -8 0
-15 -4 -15 -10z"/>
<path d="M778 1603 c7 -3 16 -2 19 1 4 3 -2 6 -13 5 -11 0 -14 -3 -6 -6z"/>
<path d="M480 1445 c-18 -21 -1 -37 53 -50 52 -13 57 -39 9 -43 -22 -2 -41 3
-53 14 -17 15 -19 15 -19 1 0 -30 91 -41 118 -13 22 21 2 41 -54 55 -28 7 -44
16 -41 24 5 17 55 21 73 6 8 -6 18 -9 21 -5 12 12 -20 26 -58 26 -21 0 -42 -7
-49 -15z"/>
<path d="M647 1404 c-28 -57 -29 -86 -1 -46 10 14 26 22 44 22 18 0 34 -8 44
-22 9 -12 18 -19 22 -15 9 9 -51 111 -67 115 -9 1 -25 -20 -42 -54z m61 11
c11 -24 10 -25 -18 -25 -28 0 -29 1 -18 25 6 14 14 25 18 25 4 0 12 -11 18
-25z"/>
<path d="M790 1400 l0 -60 53 2 c50 1 50 2 10 5 l-43 4 0 55 c0 30 -4 54 -10
54 -6 0 -10 -27 -10 -60z"/>
<path d="M920 1400 l0 -60 68 2 67 2 -58 3 c-53 4 -58 6 -55 26 2 18 12 23 48
28 l45 6 -47 1 c-40 2 -48 5 -48 21 0 17 8 21 53 24 l52 3 -62 2 -63 2 0 -60z"/>
<path d="M1090 1445 c-18 -22 2 -42 50 -50 36 -6 57 -25 43 -39 -13 -13 -72
-5 -88 11 -16 16 -17 15 -14 -2 5 -22 50 -35 89 -25 18 4 25 13 25 30 0 21 -7
27 -45 36 -27 6 -45 16 -45 25 0 17 53 25 68 10 17 -17 31 -13 17 4 -7 8 -29
15 -50 15 -21 0 -43 -7 -50 -15z"/>
<path d="M1240 1400 c0 -33 4 -60 10 -60 6 0 10 27 10 60 0 33 -4 60 -10 60
-6 0 -10 -27 -10 -60z"/>
<path d="M1320 1400 c-17 -33 -26 -60 -20 -60 5 0 14 9 20 20 7 14 21 20 43
20 21 0 36 -7 45 -20 7 -11 16 -20 21 -20 5 0 -6 27 -23 60 -17 33 -37 60 -43
60 -7 0 -26 -27 -43 -60z m58 15 c11 -24 10 -25 -17 -25 -27 0 -28 1 -18 25
15 31 21 31 35 0z"/>
<path d="M1460 1400 c0 -33 4 -60 10 -60 6 0 10 21 10 47 l0 47 48 -47 c26
-26 51 -47 55 -47 4 0 6 28 5 63 -1 56 -2 57 -5 15 -2 -27 -8 -48 -13 -48 -5
0 -25 20 -46 45 -51 62 -64 59 -64 -15z"/>
<path d="M1652 1444 c-49 -34 -15 -106 51 -106 61 0 84 22 77 72 -6 47 -81 67
-128 34z m100 -11 c36 -32 8 -83 -47 -83 -38 0 -55 16 -55 50 0 14 5 31 12 38
17 17 68 15 90 -5z"/>
<path d="M400 1284 c0 -48 40 -224 71 -307 81 -227 271 -465 537 -675 l103
-82 45 31 c119 81 261 212 353 324 170 206 267 420 315 698 l7 37 -716 0 -715
0 0 -26z m1390 -22 c0 -33 -58 -226 -93 -309 -97 -230 -230 -402 -457 -593
-66 -55 -124 -100 -128 -100 -13 0 -226 183 -307 265 -97 96 -156 173 -218
280 -69 119 -101 215 -153 453 l-4 22 680 0 c652 0 680 -1 680 -18z"/>
<path d="M1109 1193 c-3 -49 6 -63 25 -38 10 15 11 23 2 37 -14 23 -26 23 -27
1z"/>
<path d="M1252 1196 c2 -8 25 -29 52 -48 58 -39 73 -64 32 -54 -42 10 -32 -20
12 -35 20 -6 42 -16 49 -21 8 -6 13 0 18 20 7 34 -21 103 -45 110 -12 4 -13 2
-2 -9 13 -14 17 -49 4 -49 -4 0 -15 13 -25 29 -15 26 -73 71 -91 71 -4 0 -6
-6 -4 -14z"/>
<path d="M903 1160 c-12 -5 -29 -20 -39 -34 -20 -32 -29 -33 -40 -3 -6 17 -8
10 -11 -32 -2 -29 -2 -55 0 -57 7 -7 75 17 87 31 10 12 6 13 -26 8 -51 -8 -42
12 26 60 50 35 52 47 3 27z"/>
<path d="M1014 1078 c-22 -23 -56 -86 -68 -123 -5 -19 -1 -20 62 -20 56 0 69
3 79 20 14 24 -2 33 -54 34 -18 1 -33 3 -33 5 0 13 34 82 44 88 38 25 77 -7
69 -57 -4 -23 -2 -35 6 -35 6 0 11 15 11 33 0 41 15 57 56 57 37 0 49 -12 58
-61 6 -36 6 -37 -29 -43 -27 -5 -35 -12 -35 -29 0 -20 4 -22 51 -18 l50 3 -7
32 c-3 17 -14 54 -23 81 -15 46 -18 50 -46 48 -65 -3 -82 -3 -125 3 -39 5 -48
2 -66 -18z"/>
<path d="M742 1045 c-9 -20 -9 -32 2 -58 8 -17 17 -41 21 -52 3 -11 9 -15 13
-10 4 6 27 23 50 38 49 32 51 41 4 28 -30 -9 -36 -7 -33 12 0 4 -4 7 -9 7 -6
0 -17 14 -24 30 l-12 31 -12 -26z"/>
<path d="M1442 1033 c-19 -21 -29 -25 -58 -20 -35 6 -35 6 -21 -16 8 -12 25
-23 38 -25 13 -2 30 -11 37 -20 11 -14 12 -14 12 1 0 10 7 28 15 41 10 15 13
31 8 44 -8 20 -8 20 -31 -5z"/>
<path d="M1490 925 c-15 -15 -27 -21 -31 -14 -4 7 -8 5 -12 -5 -6 -14 -11 -13
-42 5 -47 28 -45 8 4 -42 l40 -39 35 34 c24 22 36 42 36 60 0 31 1 31 -30 1z"/>
<path d="M718 889 c10 -23 27 -48 38 -56 17 -11 25 -9 56 12 24 16 37 34 40
54 4 26 2 29 -14 20 -9 -5 -22 -18 -28 -29 -15 -28 -34 -25 -75 11 l-35 31 18
-43z"/>
<path d="M1143 875 c-3 -9 -3 -18 -1 -21 3 -3 8 4 11 16 6 23 -1 27 -10 5z"/>
<path d="M956 812 c-2 -4 7 -13 21 -19 25 -12 25 -12 8 7 -20 22 -22 23 -29
12z"/>
<path d="M1259 803 c-13 -16 -12 -17 4 -4 9 7 17 15 17 17 0 8 -8 3 -21 -13z"/>
<path d="M1364 806 c-4 -10 -2 -40 5 -67 13 -48 12 -50 -19 -89 -48 -60 -63
-54 -34 15 8 20 13 39 11 41 -7 8 -45 -42 -56 -75 -19 -59 -16 -67 27 -63 20
2 46 7 57 12 11 5 27 11 35 13 8 3 -2 6 -22 6 -21 1 -38 5 -38 9 0 14 85 92
101 92 22 0 59 29 59 46 0 13 -3 13 -22 0 -32 -23 -41 -20 -33 12 6 26 6 26
-9 7 -16 -22 -16 -23 -38 25 -14 30 -17 32 -24 16z"/>
<path d="M855 785 c-24 -72 -25 -73 -105 -50 l-25 8 29 -31 c16 -18 39 -35 50
-38 24 -8 116 -83 116 -95 0 -4 -26 -5 -57 -3 l-58 5 60 -26 c33 -14 69 -23
79 -21 20 5 136 -53 136 -67 0 -5 -9 -20 -20 -34 -11 -14 -20 -31 -20 -37 0
-6 10 1 21 17 27 35 54 37 45 2 -16 -67 -16 -79 1 -38 10 23 21 45 25 49 11
11 27 -41 21 -67 -4 -19 -3 -21 6 -9 6 8 11 27 11 43 0 32 6 33 35 10 12 -10
1 1 -23 25 -25 23 -43 44 -41 45 2 2 23 15 47 30 23 15 42 30 42 33 0 3 -13
-4 -29 -15 -40 -29 -44 -27 -38 19 7 53 -14 39 -32 -20 -13 -44 -28 -49 -67
-23 -14 9 -40 24 -57 33 -23 13 -34 26 -38 51 -6 41 -20 68 -47 93 -21 18 -21
18 -10 -18 15 -49 3 -56 -33 -19 l-31 31 17 51 c12 36 13 55 6 68 -9 17 -10
17 -16 -2z"/>
<path d="M950 781 c0 -10 19 -25 25 -20 1 2 -3 10 -11 17 -8 7 -14 8 -14 3z"/>
<path d="M1020 776 c0 -2 8 -10 18 -17 15 -13 16 -12 3 4 -13 16 -21 21 -21
13z"/>
<path d="M990 756 c0 -2 7 -7 16 -10 8 -3 12 -2 9 4 -6 10 -25 14 -25 6z"/>
<path d="M1201 740 l-23 -20 30 0 c25 0 29 3 25 20 -3 11 -6 20 -7 20 0 -1
-12 -10 -25 -20z"/>
<path d="M998 713 c7 -3 16 -2 19 1 4 3 -2 6 -13 5 -11 0 -14 -3 -6 -6z"/>
<path d="M1264 702 c3 -6 -2 -13 -11 -15 -16 -4 -16 -5 -1 -6 21 -1 32 15 17
25 -7 4 -9 3 -5 -4z"/>
<path d="M1040 685 c-7 -9 -8 -15 -2 -15 5 0 12 7 16 15 3 8 4 15 2 15 -2 0
-9 -7 -16 -15z"/>
<path d="M1093 673 c9 -2 23 -2 30 0 6 3 -1 5 -18 5 -16 0 -22 -2 -12 -5z"/>
</g>
</svg>
